HIERARCHY
ROOT Hips
{
 OFFSET 0.000000 0.000000 0.000000
 CHANNELS 6 Xposition Yposition Zposition Yrotation Xrotation Zrotation
 JOINT Chest
 {
  OFFSET 0.000000 9.857222 0.000240
  CHANNELS 3 Yrotation Xrotation Zrotation
  JOINT Chest2
  {
   OFFSET 0.000000 10.876940 -0.000436
   CHANNELS 3 Yrotation Xrotation Zrotation
   JOINT Chest3
   {
    OFFSET 0.000000 9.827798 0.000000
    CHANNELS 3 Yrotation Xrotation Zrotation
    JOINT Chest4
    {
     OFFSET 0.000000 9.827798 0.000000
     CHANNELS 3 Yrotation Xrotation Zrotation
     JOINT Neck
     {
      OFFSET 0.000000 13.831992 0.000000
      CHANNELS 3 Yrotation Xrotation Zrotation
      JOINT Head
      {
       OFFSET 0.000000 9.147643 -0.001036
       CHANNELS 3 Yrotation Xrotation Zrotation
       End Site
       {
        OFFSET 0.000000 17.515799 -0.000541
       }
      }
     }
     JOINT RightCollar
     {
      OFFSET -3.001579 7.717577 0.000000
      CHANNELS 3 Yrotation Xrotation Zrotation
      JOINT RightShoulder
      {
       OFFSET -14.002642 0.000000 0.000000
       CHANNELS 3 Yrotation Xrotation Zrotation
       JOINT RightElbow
       {
        OFFSET -30.053852 0.000000 0.000000
        CHANNELS 3 Yrotation Xrotation Zrotation
        JOINT RightWrist
        {
         OFFSET -24.564923 0.000000 -0.000000
         CHANNELS 3 Yrotation Xrotation Zrotation
         End Site
         {
          OFFSET -18.334355 0.000000 0.000000
         }
        }
       }
      }
     }
     JOINT LeftCollar
     {
      OFFSET 3.001579 7.717577 0.000000
      CHANNELS 3 Yrotation Xrotation Zrotation
      JOINT LeftShoulder
      {
       OFFSET 14.002642 0.000000 0.000000
       CHANNELS 3 Yrotation Xrotation Zrotation
       JOINT LeftElbow
       {
        OFFSET 30.053852 0.000000 0.000000
        CHANNELS 3 Yrotation Xrotation Zrotation
        JOINT LeftWrist
        {
         OFFSET 24.564923 0.000000 -0.000000
         CHANNELS 3 Yrotation Xrotation Zrotation
         End Site
         {
          OFFSET 18.334355 0.000000 0.000000
         }
        }
       }
      }
     }
    }
   }
  }
 }
 JOINT RightHip
 {
  OFFSET -8.003235 -0.001175 -0.000120
  CHANNELS 3 Yrotation Xrotation Zrotation
  JOINT RightKnee
  {
   OFFSET 0.000000 -41.759727 0.000113
   CHANNELS 3 Yrotation Xrotation Zrotation
   JOINT RightAnkle
   {
    OFFSET 0.000000 -40.728748 0.000159
    CHANNELS 3 Yrotation Xrotation Zrotation
    JOINT RightToe
    {
     OFFSET 0.000000 -6.515296 14.732841
     CHANNELS 3 Yrotation Xrotation Zrotation
     End Site
     {
      OFFSET 0.000000 -1.502839 6.412115
     }
    }
   }
  }
 }
 JOINT LeftHip
 {
  OFFSET 8.003235 -0.001175 -0.000120
  CHANNELS 3 Yrotation Xrotation Zrotation
  JOINT LeftKnee
  {
   OFFSET 0.000000 -41.759727 0.000113
   CHANNELS 3 Yrotation Xrotation Zrotation
   JOINT LeftAnkle
   {
    OFFSET 0.000000 -40.728748 0.000159
    CHANNELS 3 Yrotation Xrotation Zrotation
    JOINT LeftToe
    {
     OFFSET 0.000000 -6.515296 14.732841
     CHANNELS 3 Yrotation Xrotation Zrotation
     End Site
     {
      OFFSET 0.000000 -1.502839 6.412115
     }
    }
   }
  }
 }
}
MOTION
Frames: 12
Frame Time: 0.016667
9.440627 90.632530 18.075364 -27.767543 -15.578768 -1.514446 3.203126 5.763556 0.202001 1.459516 2.490069 -0.161647 1.459516 2.490069 -0.161647 1.095124 1.867178 -0.127167 -10.168273 26.598011 0.716982 -18.290750 13.822856 3.454543 -7.921106 0.410881 -0.332861 70.826906 24.836425 -19.584034 13.042173 -6.015856 -15.680804 4.279723 1.647326 -2.028231 -27.859904 10.236974 -10.937578 -33.541411 8.713344 -54.504867 -24.975842 11.675436 -18.453304 1.571971 10.508603 4.498455 -2.846302 22.979365 -7.642770 -4.792446 -5.094202 4.823233 -1.964031 -1.721659 1.875745 1.231220 -0.203659 0.539595 -12.922825 16.535816 1.353359 16.223998 5.954988 1.430513 0.730628 -4.435787 -3.531807 -0.145219 0.067277 -0.066774
9.457747 90.630343 18.082586 -27.857359 -15.682051 -1.496476 3.213836 5.882948 0.189756 1.464369 2.541874 -0.166010 1.464369 2.541874 -0.166010 1.098787 1.906021 -0.130582 -10.173517 26.564511 0.743247 -18.307420 13.765623 3.506475 -7.391826 1.493177 -0.012265 70.929255 24.327461 -19.349279 12.837453 -5.167721 -15.183625 4.483506 1.746752 -1.940521 -27.818605 10.253891 -10.865906 -33.548599 8.625048 -54.408774 -24.950203 11.730895 -18.383296 1.597139 10.493716 4.479202 -2.672227 23.069917 -7.616665 -4.879298 -5.070804 4.831414 -1.955187 -1.729814 1.884139 1.212694 -0.185972 0.531493 -12.844708 16.625582 1.313973 16.207291 5.980662 1.441575 0.754484 -4.453369 -3.525548 -0.145068 0.073507 -0.064307
9.465617 90.631401 18.097234 -27.863818 -15.836096 -1.484835 3.143328 6.044152 0.170087 1.448301 2.596973 -0.173866 1.448301 2.596973 -0.173866 1.086779 1.947331 -0.136536 -10.173832 26.534674 0.749930 -18.310882 13.711632 3.522273 -7.043464 2.566610 0.208543 71.454404 23.634574 -18.839158 12.685978 -4.366489 -14.907169 4.731396 1.947470 -1.712810 -27.717735 10.224713 -10.806646 -33.625345 8.637310 -54.337871 -24.942350 11.749993 -18.282531 1.599405 10.504923 4.418879 -2.703138 23.227611 -7.661801 -4.878601 -5.069547 4.845832 -1.954992 -1.730300 1.878019 1.227364 -0.181442 0.540637 -12.913722 16.751834 1.234472 16.220258 6.031995 1.452721 0.809704 -4.469580 -3.528371 -0.143844 0.066933 -0.059341
9.484198 90.629190 18.108881 -27.834598 -15.937865 -1.436900 3.072793 6.134311 0.106611 1.425288 2.631398 -0.188543 1.425288 2.631398 -0.188543 1.069590 1.973122 -0.147524 -10.190472 26.542182 0.733030 -18.336537 13.724721 3.494721 -6.847683 3.461603 0.397702 72.115210 23.062228 -18.073723 12.685566 -3.719306 -14.683261 5.033201 2.191436 -1.288162 -27.645356 10.234527 -10.751978 -33.671830 8.682198 -54.301151 -24.995776 11.903900 -18.234868 1.593717 10.512806 4.379179 -2.809798 23.328745 -7.790024 -4.859094 -5.067090 4.882101 -1.850697 -1.747763 1.907489 1.161825 -0.163110 0.515414 -12.998736 16.802613 1.156050 16.201710 6.105864 1.411604 0.843228 -4.484276 -3.505855 -0.134750 0.055440 -0.049806
9.502600 90.625477 18.115795 -27.809434 -16.023312 -1.418279 3.023896 6.213851 0.075766 1.414718 2.652842 -0.202013 1.414718 2.652842 -0.202013 1.061727 1.989177 -0.157628 -10.223604 26.568850 0.686217 -18.384200 13.770381 3.415016 -6.484442 4.356547 0.703612 72.284453 22.714342 -17.565831 12.778832 -3.050304 -14.326000 5.363500 2.414268 -0.630082 -27.629518 10.301742 -10.710868 -33.645099 8.642504 -54.258284 -25.074778 12.222618 -18.266762 1.584249 10.501866 4.381900 -2.816365 23.412447 -7.822093 -4.878328 -5.051280 4.885795 -1.872744 -1.776110 1.903750 1.172115 -0.138262 0.524512 -13.141214 16.842838 1.053733 16.287254 6.162954 1.444028 0.866469 -4.508867 -3.510602 -0.136408 0.063396 -0.048063
9.527046 90.624230 18.123644 -27.856875 -16.129811 -1.407995 3.024837 6.291271 0.069876 1.414596 2.684448 -0.213146 1.414596 2.684448 -0.213146 1.061690 2.012856 -0.166049 -10.250438 26.597162 0.620604 -18.416494 13.815512 3.300540 -5.856709 5.454568 1.131808 72.094819 22.299424 -17.316652 12.706158 -1.846639 -13.797165 5.664424 2.498791 -0.244493 -27.607733 10.398146 -10.669075 -33.636240 8.559787 -54.184155 -25.135296 12.483697 -18.345236 1.561560 10.473636 4.394211 -2.644519 23.503572 -7.779335 -4.963793 -5.011433 4.878182 -1.926976 -1.795918 1.891370 1.206237 -0.123393 0.542813 -13.090281 16.923722 0.979000 16.287082 6.180084 1.518896 0.880060 -4.518288 -3.525676 -0.145786 0.071706 -0.052483
9.543117 90.630207 18.128444 -27.910025 -16.301278 -1.380616 2.995280 6.417354 0.059114 1.404629 2.741888 -0.220070 1.404629 2.741888 -0.220070 1.054258 2.055924 -0.171328 -10.249073 26.603449 0.556050 -18.399748 13.817149 3.185161 -5.257223 6.667571 1.502160 72.027244 21.789250 -17.101955 12.563880 -0.652059 -13.433627 5.923728 2.577670 -0.101562 -27.528427 10.432689 -10.638178 -33.696772 8.482730 -54.135677 -25.118241 12.571107 -18.378695 1.547436 10.455688 4.359508 -2.474116 23.660326 -7.764324 -5.061088 -4.970948 4.882744 -1.942732 -1.794753 1.894786 1.198796 -0.130091 0.540805 -13.031789 17.063944 0.931680 16.290963 6.224077 1.504434 0.855933 -4.506757 -3.506565 -0.140450 0.046249 -0.051554
9.552614 90.643017 18.143354 -27.900873 -16.519713 -1.361590 2.916198 6.599098 0.034484 1.386297 2.809500 -0.231994 1.386297 2.809500 -0.231994 1.040581 2.106612 -0.180339 -10.226440 26.595805 0.528531 -18.353733 13.796464 3.132889 -4.857908 7.854621 1.814413 72.112440 21.243784 -16.814281 12.689878 -0.022322 -13.418059 6.104447 2.675264 -0.038587 -27.431090 10.405245 -10.581642 -33.789961 8.459908 -54.123201 -25.074045 12.548899 -18.363163 1.531770 10.458123 4.288695 -2.465419 23.875850 -7.785695 -5.094563 -4.959987 4.879536 -1.988798 -1.741773 1.871559 1.250623 -0.179826 0.563137 -13.033817 17.259968 0.840096 16.264797 6.237269 1.526920 0.872105 -4.467478 -3.502205 -0.144287 0.008067 -0.055022
9.559164 90.652743 18.162765 -27.840456 -16.700084 -1.344940 2.807775 6.763898 0.002282 1.358023 2.865473 -0.240814 1.358023 2.865473 -0.240814 1.019435 2.148583 -0.186946 -10.198519 26.578781 0.510223 -18.300705 13.759324 3.097069 -4.541775 8.939682 2.096260 72.235557 20.874954 -16.399114 13.060406 -0.121182 -13.629862 6.217979 2.821835 0.116728 -27.344722 10.350887 -10.537527 -33.832482 8.485583 -54.134491 -25.085183 12.538027 -18.353669 1.521065 10.427693 4.261388 -2.680219 24.066770 -7.900743 -5.014535 -4.980146 4.907541 -1.971292 -1.706203 1.847174 1.275115 -0.212012 0.574015 -13.082531 17.414532 0.749391 16.232976 6.255542 1.547436 0.883228 -4.435579 -3.499021 -0.145083 -0.024854 -0.057041
9.563809 90.655723 18.183223 -27.762914 -16.820377 -1.321559 2.679769 6.908602 -0.036702 1.332148 2.896015 -0.241863 1.332148 2.896015 -0.241863 1.000045 2.171496 -0.187677 -10.169537 26.555915 0.479610 -18.243356 13.709472 3.039985 -4.139800 9.839151 2.397777 72.419661 20.522897 -15.796397 13.298710 -0.193234 -13.648511 6.334640 3.051517 0.365090 -27.287026 10.344886 -10.511379 -33.785999 8.456458 -54.149857 -25.128241 12.501337 -18.382040 1.547186 10.429120 4.329630 -2.895667 24.198758 -8.022053 -4.940197 -4.998619 4.934462 -1.974721 -1.680455 1.832531 1.289946 -0.235887 0.579545 -13.160901 17.512217 0.671377 16.210211 6.276416 1.544139 0.877850 -4.431244 -3.487429 -0.140011 -0.034295 -0.056835
9.560583 90.647645 18.185879 -27.793670 -16.763222 -1.321580 2.630876 6.950425 -0.026384 1.320414 2.894972 -0.236314 1.320414 2.894972 -0.236314 0.991220 2.170731 -0.183458 -10.132933 26.526867 0.447973 -18.172437 13.647298 2.980310 -3.653269 10.519277 2.719785 72.661714 19.940291 -15.159094 13.224287 0.532517 -13.175522 6.500522 3.269199 0.662089 -27.254526 10.345173 -10.495167 -33.706170 8.371198 -54.189259 -25.149473 12.428051 -18.388213 1.583831 10.464899 4.417425 -2.870079 24.141895 -7.996629 -4.926744 -4.997663 4.917120 -1.992240 -1.713418 1.826501 1.307808 -0.202530 0.585380 -13.097212 17.459472 0.688177 16.211278 6.280337 1.569845 0.858471 -4.469147 -3.495558 -0.138381 0.001642 -0.059210
9.552577 90.636792 18.178673 -27.883135 -16.698170 -1.318851 2.622535 6.978838 -0.012902 1.315617 2.901509 -0.230488 1.315617 2.901509 -0.230488 0.987597 2.175648 -0.179081 -10.081460 26.492452 0.446644 -18.081826 13.578216 2.971941 -3.120835 11.223326 3.044603 72.743123 19.253082 -14.722761 13.090814 1.615936 -12.526521 6.673400 3.419856 0.813789 -27.218524 10.324219 -10.480614 -33.709423 8.296466 -54.237567 -25.138283 12.346917 -18.386431 1.611220 10.478304 4.501812 -2.736679 24.061196 -7.939085 -4.935958 -4.975487 4.903273 -1.988204 -1.762350 1.827186 1.300582 -0.157207 0.579921 -12.988792 17.410641 0.736923 16.225356 6.279681 1.563998 0.844935 -4.513279 -3.494842 -0.135775 0.044489 -0.061049
